<?xml version="1.0" encoding="utf-8"?>
<!-- Generator: Adobe Illustrator 25.2.1, SVG Export Plug-In . SVG Version: 6.00 Build 0)  -->
<svg version="1.1" id="Layer_1" xmlns="http://www.w3.org/2000/svg" xmlns:xlink="http://www.w3.org/1999/xlink" x="0px" y="0px"
	 viewBox="0 0 196.4 36.5" style="enable-background:new 0 0 196.4 36.5;" xml:space="preserve">
<style type="text/css">
	.st0{fill:#3D5D77;}
	.st1{display:none;}
	.st2{display:inline;fill:#3D5D77;}
	.st3{fill:#FFFFFF;}
	.st4{fill:#0AC7D9;}
	.st5{display:inline;fill:#0AC7D9;}
</style>
<g>
	<rect x="1" y="15.7" class="st0" width="194.2" height="19.1"/>
	<g class="st1">
		<path class="st2" d="M20.4,5.5c-0.2-0.3-0.5-0.5-0.8-0.6c-0.3-0.2-0.7-0.2-1-0.2c-0.2,0-0.3,0-0.5,0s-0.3,0.1-0.4,0.2
			c-0.1,0.1-0.2,0.2-0.3,0.3c-0.1,0.1-0.2,0.3-0.2,0.5s0,0.3,0.1,0.4c0.1,0.1,0.2,0.2,0.3,0.3s0.3,0.2,0.5,0.2s0.4,0.1,0.6,0.2
			C19,6.9,19.4,7,19.8,7.2c0.4,0.1,0.7,0.3,1,0.5s0.5,0.5,0.7,0.8s0.3,0.7,0.3,1.2c0,0.6-0.1,1.1-0.3,1.5c-0.2,0.4-0.5,0.8-0.8,1
			c-0.4,0.3-0.8,0.5-1.2,0.6C19,12.9,18.6,13,18.1,13c-0.7,0-1.4-0.1-2.1-0.4s-1.2-0.6-1.7-1.1l1.6-1.6c0.2,0.3,0.6,0.5,1,0.7
			s0.8,0.3,1.2,0.3c0.2,0,0.4,0,0.5-0.1c0.2,0,0.3-0.1,0.4-0.2s0.2-0.2,0.3-0.3c0.1-0.1,0.1-0.3,0.1-0.5s0-0.3-0.1-0.5
			c-0.1-0.1-0.2-0.2-0.4-0.4s-0.4-0.2-0.6-0.3s-0.5-0.2-0.9-0.3c-0.3-0.1-0.6-0.2-0.9-0.4c-0.3-0.1-0.6-0.3-0.8-0.5
			c-0.2-0.2-0.4-0.5-0.6-0.8c-0.1-0.3-0.2-0.7-0.2-1.1c0-0.6,0.1-1,0.3-1.4c0.2-0.4,0.5-0.7,0.9-1s0.8-0.4,1.2-0.6
			c0.5-0.1,0.9-0.2,1.4-0.2c0.6,0,1.1,0.1,1.7,0.3c0.6,0.2,1.1,0.5,1.5,0.9L20.4,5.5z"/>
		<path class="st2" d="M28.6,5.5c-0.2-0.3-0.5-0.5-0.8-0.6c-0.3-0.2-0.7-0.2-1-0.2c-0.2,0-0.3,0-0.5,0S26,4.8,25.9,4.9
			c-0.1,0.1-0.2,0.2-0.3,0.3c-0.1,0.1-0.1,0.3-0.1,0.5s0,0.3,0.1,0.4c0.1,0.1,0.2,0.2,0.3,0.3s0.3,0.2,0.5,0.2s0.4,0.1,0.6,0.2
			c0.3,0.1,0.7,0.2,1.1,0.4c0.4,0.1,0.7,0.3,1,0.5s0.5,0.5,0.7,0.8s0.3,0.7,0.3,1.2c0,0.6-0.1,1.1-0.3,1.5c-0.2,0.4-0.5,0.8-0.8,1
			c-0.4,0.3-0.8,0.5-1.2,0.6c-0.5,0.1-0.9,0.2-1.4,0.2c-0.7,0-1.4-0.1-2.1-0.4s-1.2-0.6-1.7-1.1l1.6-1.6c0.2,0.3,0.6,0.5,1,0.7
			s0.8,0.3,1.2,0.3c0.2,0,0.4,0,0.5-0.1c0.2,0,0.3-0.1,0.4-0.2s0.2-0.2,0.3-0.3c0.1-0.1,0.1-0.3,0.1-0.5s0-0.3-0.1-0.5
			c-0.1-0.1-0.2-0.2-0.4-0.4s-0.4-0.2-0.6-0.3s-0.5-0.2-0.9-0.3c-0.3-0.1-0.6-0.2-0.9-0.4c-0.3-0.1-0.6-0.3-0.8-0.5
			c-0.2-0.2-0.4-0.5-0.6-0.8c-0.1-0.3-0.2-0.7-0.2-1.1c0-0.6,0.1-1,0.3-1.4c0.2-0.4,0.5-0.7,0.9-1s0.8-0.4,1.2-0.6
			c0.5-0.1,0.9-0.2,1.4-0.2c0.6,0,1.1,0.1,1.7,0.3c0.6,0.2,1.1,0.5,1.5,0.9L28.6,5.5z"/>
		<path class="st2" d="M31.7,12.9V3h6.6v2h-4.4v1.9H38v1.9h-4.1v2.1h4.6v2C38.5,12.9,31.7,12.9,31.7,12.9z"/>
		<path class="st2" d="M45.4,5.5c-0.2-0.3-0.5-0.5-0.8-0.6c-0.3-0.2-0.7-0.2-1-0.2c-0.2,0-0.3,0-0.5,0s-0.3,0.1-0.4,0.2
			c-0.1,0.1-0.2,0.2-0.3,0.3s-0.1,0.3-0.1,0.5s0,0.3,0.1,0.4c0.1,0.1,0.2,0.2,0.3,0.3s0.3,0.2,0.5,0.2s0.4,0.1,0.6,0.2
			c0.3,0.1,0.7,0.2,1.1,0.4c0.4,0.1,0.7,0.3,1,0.5s0.5,0.5,0.7,0.8s0.3,0.7,0.3,1.2c0,0.6-0.1,1.1-0.3,1.5s-0.5,0.8-0.8,1
			c-0.4,0.3-0.8,0.5-1.2,0.6c-0.5,0.1-0.9,0.2-1.4,0.2c-0.7,0-1.4-0.1-2.1-0.4s-1.2-0.6-1.7-1.1L41,9.9c0.2,0.3,0.6,0.5,1,0.7
			s0.8,0.3,1.2,0.3c0.2,0,0.4,0,0.5-0.1c0.2,0,0.3-0.1,0.4-0.2s0.2-0.2,0.3-0.3s0.1-0.3,0.1-0.5s0-0.3-0.1-0.5
			c-0.1-0.1-0.2-0.2-0.4-0.4s-0.4-0.2-0.6-0.3s-0.5-0.2-0.9-0.3c-0.3-0.1-0.6-0.2-0.9-0.4c-0.3-0.1-0.6-0.3-0.8-0.5
			s-0.4-0.5-0.6-0.8C40.1,6.3,40,5.9,40,5.5c0-0.6,0.1-1,0.3-1.4s0.5-0.7,0.9-1s0.8-0.4,1.2-0.6c0.5-0.1,0.9-0.2,1.4-0.2
			c0.6,0,1.1,0.1,1.7,0.3c0.6,0.2,1.1,0.5,1.5,0.9L45.4,5.5z"/>
		<path class="st2" d="M53.7,5.5c-0.2-0.3-0.5-0.5-0.8-0.6s-0.7-0.2-1-0.2c-0.2,0-0.3,0-0.5,0S51.1,4.8,51,4.9
			c-0.1,0.1-0.2,0.2-0.3,0.3s-0.1,0.3-0.1,0.5s0,0.3,0.1,0.4c0.1,0.1,0.2,0.2,0.3,0.3s0.3,0.2,0.5,0.2c0.2,0.1,0.4,0.1,0.6,0.2
			c0.3,0.1,0.7,0.2,1.1,0.4c0.4,0.1,0.7,0.3,1,0.5s0.5,0.5,0.7,0.8s0.3,0.7,0.3,1.2c0,0.6-0.1,1.1-0.3,1.5s-0.5,0.8-0.8,1
			c-0.4,0.3-0.8,0.5-1.2,0.6C52.4,12.9,52,13,51.5,13c-0.7,0-1.4-0.1-2.1-0.4s-1.2-0.6-1.7-1.1l1.6-1.6c0.2,0.3,0.6,0.5,1,0.7
			s0.8,0.3,1.2,0.3c0.2,0,0.4,0,0.5-0.1c0.2,0,0.3-0.1,0.4-0.2s0.2-0.2,0.3-0.3s0.1-0.3,0.1-0.5s0-0.3-0.1-0.5
			c-0.1-0.1-0.2-0.2-0.4-0.4s-0.4-0.2-0.6-0.3s-0.5-0.2-0.9-0.3c-0.3-0.1-0.6-0.2-0.9-0.4c-0.3-0.1-0.6-0.3-0.8-0.5
			s-0.4-0.5-0.6-0.8c-0.1-0.3-0.2-0.7-0.2-1.1c0-0.6,0.1-1,0.3-1.4s0.5-0.7,0.9-1s0.8-0.4,1.2-0.6c0.5-0.1,0.9-0.2,1.4-0.2
			c0.6,0,1.1,0.1,1.7,0.3c0.6,0.2,1.1,0.5,1.5,0.9L53.7,5.5z"/>
		<path class="st2" d="M65.7,12.9l0.1-7l0,0l-2.6,7h-1.7l-2.5-7l0,0l0.1,7h-2.3V3h3.4l2.3,6.4h0.1L64.8,3h3.5v9.9H65.7z"/>
		<path class="st2" d="M70.1,12.9V3h6.7v2h-4.4v1.9h4.1v1.9h-4.1v2.1H77v2C77,12.9,70.1,12.9,70.1,12.9z"/>
		<path class="st2" d="M84.9,12.9l-4-6.5l0,0l0.1,6.5h-2.3V3h2.6l4,6.5l0,0V3h2.3v9.9C87.6,12.9,84.9,12.9,84.9,12.9z"/>
		<path class="st2" d="M93.9,5v7.9h-2.4V5h-2.8V3h8v2H93.9z"/>
		<path class="st2" d="M108,12.9l-0.9-1c-0.3,0.3-0.7,0.6-1.2,0.8c-0.5,0.2-1,0.3-1.7,0.3c-0.4,0-0.9-0.1-1.3-0.2s-0.8-0.3-1.1-0.5
			c-0.3-0.2-0.6-0.6-0.8-0.9c-0.2-0.4-0.3-0.8-0.3-1.3c0-0.3,0.1-0.7,0.2-1s0.3-0.5,0.5-0.8c0.2-0.2,0.4-0.4,0.7-0.6
			s0.5-0.3,0.8-0.4c-0.3-0.3-0.6-0.6-0.7-1c-0.2-0.4-0.3-0.7-0.3-1.2c0-0.4,0.1-0.8,0.3-1.1s0.4-0.6,0.7-0.8s0.6-0.4,1-0.4
			c0.4-0.1,0.7-0.1,1.1-0.1s0.7,0,1.1,0.1s0.7,0.2,1,0.5c0.3,0.2,0.5,0.5,0.7,0.8s0.3,0.7,0.3,1.1c0,0.3-0.1,0.6-0.2,0.9
			c-0.1,0.3-0.2,0.5-0.4,0.7c-0.2,0.2-0.4,0.4-0.6,0.6c-0.2,0.2-0.5,0.3-0.8,0.5l1.2,1.3l1-1.5h2.5l-2.1,2.9l2.5,2.5H108
			C108,13.1,108,12.9,108,12.9z M103.9,8.7c-0.3,0.1-0.5,0.3-0.7,0.5s-0.3,0.5-0.3,0.9c0,0.2,0,0.4,0.1,0.5s0.2,0.3,0.3,0.4
			c0.1,0.1,0.3,0.2,0.4,0.2c0.2,0.1,0.3,0.1,0.5,0.1c0.3,0,0.6-0.1,0.8-0.2c0.2-0.1,0.5-0.3,0.6-0.6L103.9,8.7z M105.7,5.3
			c0-0.3-0.1-0.5-0.3-0.6c-0.2-0.2-0.4-0.3-0.7-0.3c-0.3,0-0.5,0.1-0.7,0.3s-0.3,0.4-0.3,0.7c0,0.2,0.1,0.5,0.2,0.7s0.3,0.4,0.6,0.6
			c0.3-0.1,0.6-0.3,0.8-0.5C105.6,5.8,105.7,5.6,105.7,5.3z"/>
		<path class="st2" d="M135.7,12.9l-4-6.5l0,0l0.1,6.5h-2.3V3h2.7l4,6.5l0,0L136.1,3h2.3v9.9C138.4,12.9,135.7,12.9,135.7,12.9z"/>
		<path class="st2" d="M147.2,12.9l-0.8-1.9h-3.8l-0.7,1.9h-2.6l4.2-9.9h2.3l4.1,9.9H147.2z M144.5,5.6L143.2,9h2.5L144.5,5.6z"/>
		<path class="st2" d="M150.7,12.9V3h2.4v7.8h3.8v2.1H150.7z"/>
		<path class="st2" d="M161.8,8.7v4.2h-2.4V8.7L155.7,3h2.9l2.1,3.7l2.1-3.7h2.8L161.8,8.7z"/>
		<path class="st2" d="M171.5,5.5c-0.2-0.3-0.5-0.5-0.8-0.6s-0.7-0.2-1-0.2c-0.2,0-0.3,0-0.5,0s-0.3,0.1-0.4,0.2
			c-0.1,0.1-0.2,0.2-0.3,0.3s-0.1,0.3-0.1,0.5s0,0.3,0.1,0.4c0.1,0.1,0.2,0.2,0.3,0.3s0.3,0.2,0.5,0.2s0.4,0.1,0.6,0.2
			c0.3,0.1,0.7,0.2,1,0.4c0.4,0.1,0.7,0.3,1,0.5s0.5,0.5,0.7,0.8s0.3,0.7,0.3,1.2c0,0.6-0.1,1.1-0.3,1.5s-0.5,0.8-0.8,1
			s-0.8,0.5-1.2,0.6c-0.5,0.1-0.9,0.2-1.4,0.2c-0.7,0-1.4-0.1-2.1-0.4c-0.7-0.2-1.2-0.6-1.7-1.1l1.6-1.6c0.2,0.3,0.6,0.5,1,0.7
			s0.8,0.3,1.2,0.3c0.2,0,0.3,0,0.5-0.1c0.2,0,0.3-0.1,0.4-0.2s0.2-0.2,0.3-0.3s0.1-0.3,0.1-0.5s0-0.3-0.1-0.5
			c-0.1-0.1-0.2-0.2-0.4-0.4s-0.4-0.2-0.6-0.3c-0.3-0.1-0.5-0.2-0.9-0.3c-0.3-0.1-0.6-0.2-0.9-0.4c-0.3-0.1-0.6-0.3-0.8-0.5
			s-0.4-0.5-0.6-0.8S166,5.9,166,5.5c0-0.6,0.1-1,0.3-1.4s0.5-0.7,0.9-1s0.8-0.4,1.2-0.6c0.5-0.1,0.9-0.2,1.4-0.2
			c0.6,0,1.1,0.1,1.7,0.3c0.6,0.2,1.1,0.5,1.5,0.9L171.5,5.5z"/>
		<path class="st2" d="M174.6,12.9V3h2.4v9.9C177,12.9,174.6,12.9,174.6,12.9z"/>
		<path class="st2" d="M184.3,5.5c-0.2-0.3-0.5-0.5-0.8-0.6s-0.7-0.2-1-0.2c-0.2,0-0.3,0-0.5,0s-0.3,0.1-0.4,0.2
			c-0.1,0.1-0.2,0.2-0.3,0.3s-0.1,0.3-0.1,0.5s0,0.3,0.1,0.4c0.1,0.1,0.2,0.2,0.3,0.3s0.3,0.2,0.5,0.2s0.4,0.1,0.6,0.2
			c0.3,0.1,0.7,0.2,1,0.4c0.4,0.1,0.7,0.3,1,0.5s0.5,0.5,0.7,0.8s0.3,0.7,0.3,1.2c0,0.6-0.1,1.1-0.3,1.5s-0.5,0.8-0.8,1
			s-0.8,0.5-1.2,0.6c-0.5,0.1-0.9,0.2-1.4,0.2c-0.7,0-1.4-0.1-2.1-0.4c-0.7-0.2-1.2-0.6-1.7-1.1l1.6-1.6c0.2,0.3,0.6,0.5,1,0.7
			s0.8,0.3,1.2,0.3c0.2,0,0.3,0,0.5-0.1c0.2,0,0.3-0.1,0.4-0.2s0.2-0.2,0.3-0.3s0.1-0.3,0.1-0.5s0-0.3-0.1-0.5
			c-0.1-0.1-0.2-0.2-0.4-0.4s-0.4-0.2-0.6-0.3c-0.3-0.1-0.5-0.2-0.9-0.3c-0.3-0.1-0.6-0.2-0.9-0.4c-0.3-0.1-0.6-0.3-0.8-0.5
			s-0.4-0.5-0.6-0.8s-0.2-0.7-0.2-1.1c0-0.6,0.1-1,0.3-1.4s0.5-0.7,0.9-1s0.8-0.4,1.2-0.6c0.5-0.1,0.9-0.2,1.4-0.2
			c0.6,0,1.1,0.1,1.7,0.3c0.6,0.2,1.1,0.5,1.5,0.9L184.3,5.5z"/>
	</g>
	<g>
		<path class="st3" d="M5,25.2L5,25.2L8.3,22h0.9l-3.5,3.3l3.7,4H8.4l-3.5-3.9l0,0v3.9H4.3v-7.2H5V25.2z"/>
		<path class="st3" d="M15.2,28.2L15.2,28.2V22h0.7v7.2h-0.8l-4-6.2l0,0v6.2h-0.7V22h0.8L15.2,28.2z"/>
		<path class="st3" d="M24.6,25.6c0,0.6-0.1,1.1-0.3,1.6c-0.2,0.4-0.4,0.9-0.7,1.2s-0.7,0.6-1.2,0.8c-0.4,0.2-0.9,0.3-1.4,0.3
			s-0.9-0.1-1.5-0.3c-0.4-0.2-0.8-0.4-1.2-0.8c-0.3-0.3-0.5-0.8-0.7-1.2c-0.2-0.4-0.3-1-0.3-1.6c0-0.6,0.1-1.1,0.3-1.6
			s0.4-0.9,0.7-1.2c0.3-0.3,0.7-0.6,1.2-0.8s0.9-0.3,1.5-0.3s0.9,0.1,1.4,0.3c0.4,0.2,0.8,0.4,1.2,0.8c0.3,0.3,0.5,0.8,0.7,1.2
			C24.5,24.5,24.6,25.1,24.6,25.6z M23.8,25.6c0-0.4-0.1-0.8-0.2-1.2c-0.1-0.3-0.3-0.7-0.5-1c-0.2-0.3-0.5-0.6-0.9-0.7
			c-0.3-0.2-0.7-0.2-1.2-0.2s-0.8,0.1-1.2,0.2c-0.3,0.1-0.6,0.4-0.9,0.7c-0.2,0.3-0.4,0.7-0.5,1c-0.1,0.3-0.2,0.8-0.2,1.2
			c0,0.4,0.1,0.8,0.2,1.2c0.1,0.3,0.3,0.7,0.5,1c0.2,0.3,0.5,0.6,0.9,0.7c0.4,0.1,0.7,0.2,1.2,0.2s0.8-0.1,1.2-0.2
			c0.3-0.2,0.6-0.4,0.9-0.7c0.2-0.3,0.4-0.7,0.5-1C23.7,26.4,23.8,26.1,23.8,25.6z"/>
		<path class="st3" d="M27.6,28.2L27.6,28.2l1.7-6.2h0.8l1.7,6.2l0,0l1.7-6.2h0.7l-2,7.2h-0.8L29.7,23l0,0L28,29.2h-0.8l-2-7.2h0.7
			L27.6,28.2z"/>
		<path class="st3" d="M36.2,28.6h3.2v0.7h-3.9v-7.2h0.7V28.6z"/>
		<path class="st3" d="M41.1,28.6h3.7v0.7h-4.4v-7.2h4.2v0.7h-3.5v2.4h3.4v0.6h-3.4V28.6z"/>
		<path class="st3" d="M46.2,22h2.3c0.4,0,0.8,0.1,1.3,0.2c0.4,0.1,0.8,0.3,1.2,0.7c0.3,0.3,0.6,0.7,0.8,1.1s0.3,1,0.3,1.6
			s-0.1,1.1-0.3,1.6s-0.5,0.8-0.8,1.1c-0.3,0.3-0.7,0.6-1.2,0.7s-0.8,0.2-1.3,0.2h-2.3V22z M46.8,28.6h1.4c0.5,0,0.9-0.1,1.4-0.2
			c0.4-0.2,0.7-0.4,0.9-0.7s0.4-0.6,0.5-1c0.1-0.4,0.2-0.7,0.2-1.1c0-0.4-0.1-0.8-0.2-1.1c-0.1-0.3-0.3-0.7-0.5-1
			c-0.2-0.2-0.5-0.6-0.9-0.7c-0.4-0.2-0.8-0.2-1.4-0.2h-1.4V28.6z"/>
		<path class="st3" d="M58.7,23.3c-0.2-0.2-0.5-0.4-0.8-0.7c-0.3-0.2-0.7-0.2-1.2-0.2c-0.4,0-0.8,0.1-1.2,0.2
			c-0.3,0.2-0.6,0.4-0.9,0.7c-0.2,0.3-0.4,0.7-0.5,1c-0.1,0.3-0.2,0.8-0.2,1.2s0.1,0.8,0.2,1.2c0.1,0.3,0.3,0.7,0.5,1
			s0.5,0.6,0.9,0.7c0.3,0.2,0.7,0.2,1.2,0.2c0.4,0,0.7,0,1.1-0.1c0.3-0.1,0.6-0.2,0.7-0.3V26h-1.6v-0.7h2.3v3.2
			c-0.4,0.2-0.7,0.4-1.3,0.6c-0.4,0.1-0.8,0.2-1.4,0.2c-0.5,0-0.9-0.1-1.5-0.3c-0.4-0.2-0.8-0.4-1.2-0.8c-0.3-0.3-0.5-0.8-0.7-1.2
			c-0.2-0.4-0.3-1-0.3-1.6c0-0.6,0.1-1.1,0.3-1.6c0.2-0.4,0.4-0.9,0.7-1.2c0.3-0.3,0.7-0.6,1.2-0.8c0.4-0.2,0.9-0.3,1.4-0.3
			c0.5,0,1.1,0.1,1.5,0.2c0.4,0.2,0.7,0.4,1.1,0.8L58.7,23.3z"/>
		<path class="st3" d="M61.7,28.6h3.7v0.7H61v-7.2h4.2v0.7h-3.6v2.4H65v0.6h-3.4v2.9H61.7z"/>
		<path class="st3" d="M72.6,28L72.6,28l2.3-6H76v7.2h-0.7v-6.3l0,0l-2.5,6.3h-0.3l-2.5-6.3l0,0v6.3h-0.7V22h1.1L72.6,28z"/>
		<path class="st3" d="M77.7,29.2H77L80,22h0.6l2.9,7.2h-0.7l-0.7-1.9h-3.6L77.7,29.2z M78.7,26.6h3.1l-1.5-3.9L78.7,26.6z"/>
		<path class="st3" d="M89.4,28.2L89.4,28.2V22h0.7v7.2h-0.8l-4-6.2l0,0v6.2h-0.7V22h0.8L89.4,28.2z"/>
		<path class="st3" d="M92,29.2h-0.7l2.9-7.2h0.6l2.9,7.2H97l-0.7-1.9h-3.6L92,29.2z M92.9,26.6H96l-1.5-3.9L92.9,26.6z"/>
		<path class="st3" d="M103.9,23.3c-0.2-0.2-0.5-0.4-0.8-0.7c-0.3-0.2-0.7-0.2-1.2-0.2c-0.4,0-0.8,0.1-1.2,0.2
			c-0.3,0.2-0.6,0.4-0.9,0.7c-0.2,0.3-0.4,0.7-0.5,1S99,25.2,99,25.6c0,0.4,0.1,0.8,0.2,1.2c0.1,0.3,0.3,0.7,0.5,1
			c0.2,0.3,0.5,0.6,0.9,0.7c0.3,0.2,0.7,0.2,1.2,0.2c0.4,0,0.7,0,1.1-0.1c0.3-0.1,0.6-0.2,0.7-0.3v-2.2h-1.6v-0.7h2.3v3.2
			c-0.4,0.2-0.7,0.4-1.3,0.6c-0.4,0.1-0.8,0.2-1.4,0.2c-0.5,0-0.9-0.1-1.5-0.3c-0.4-0.2-0.8-0.4-1.2-0.8c-0.3-0.3-0.5-0.8-0.7-1.2
			s-0.3-1-0.3-1.6s0.1-1.1,0.3-1.6c0.2-0.4,0.4-0.9,0.7-1.2c0.3-0.3,0.7-0.6,1.2-0.8s0.9-0.3,1.4-0.3c0.5,0,1.1,0.1,1.5,0.2
			c0.4,0.2,0.7,0.4,1.1,0.8L103.9,23.3z"/>
		<path class="st3" d="M106.8,28.6h3.7v0.7h-4.4v-7.2h4.2v0.7h-3.6v2.4h3.4v0.6h-3.4L106.8,28.6L106.8,28.6z"/>
		<path class="st3" d="M115.3,28L115.3,28l2.3-6h1.1v7.2H118v-6.3l0,0l-2.5,6.3h-0.3l-2.5-6.3l0,0v6.3h-0.7V22h1.1L115.3,28z"/>
		<path class="st3" d="M121.2,28.6h3.7v0.7h-4.4v-7.2h4.2v0.7h-3.6v2.4h3.4v0.6h-3.4L121.2,28.6L121.2,28.6z"/>
		<path class="st3" d="M131.1,28.2L131.1,28.2V22h0.7v7.2H131l-4-6.2l0,0v6.2h-0.7V22h0.8L131.1,28.2z"/>
		<path class="st3" d="M135.9,29.2h-0.7v-6.6h-2.3V22h5.3v0.7h-2.2V29.2z"/>
		<path class="st3" d="M141.3,22h1.9c0.3,0,0.6,0,0.9,0.1c0.3,0.1,0.5,0.2,0.7,0.3c0.2,0.1,0.3,0.3,0.4,0.6c0.1,0.2,0.2,0.6,0.2,0.9
			c0,0.3-0.1,0.7-0.2,0.9c-0.1,0.2-0.3,0.4-0.5,0.6c-0.2,0.1-0.4,0.3-0.7,0.3c-0.3,0.1-0.6,0.1-0.9,0.1h-1.3v3.3h-0.7V22
			C141.1,22,141.3,22,141.3,22z M142.1,25.2h1.2c0.5,0,0.9-0.1,1.3-0.3c0.3-0.2,0.4-0.6,0.4-1c0-0.4-0.1-0.8-0.4-1
			c-0.3-0.2-0.7-0.3-1.3-0.3h-1.2V25.2z"/>
		<path class="st3" d="M147.7,28.6h3.2v0.7h-3.9v-7.2h0.7V28.6z"/>
		<path class="st3" d="M151.9,29.2h-0.7l2.9-7.2h0.6l2.9,7.2h-0.7l-0.7-1.9h-3.6L151.9,29.2z M152.9,26.6h3.1l-1.5-3.9L152.9,26.6z"
			/>
		<path class="st3" d="M160.4,29.2h-0.7v-6.6h-2.3V22h5.3v0.7h-2.3L160.4,29.2L160.4,29.2z"/>
		<path class="st3" d="M164.4,29.2h-0.7V22h4.1v0.7h-3.5v2.6h3.2v0.7h-3.2v3.3H164.4z"/>
		<path class="st3" d="M176,25.6c0,0.6-0.1,1.1-0.3,1.6c-0.2,0.4-0.4,0.9-0.7,1.2c-0.3,0.3-0.7,0.6-1.2,0.8
			c-0.4,0.2-0.9,0.3-1.4,0.3c-0.4,0-0.9-0.1-1.4-0.3c-0.4-0.2-0.8-0.4-1.2-0.8c-0.3-0.3-0.5-0.8-0.7-1.2c-0.2-0.4-0.3-1-0.3-1.6
			c0-0.6,0.1-1.1,0.3-1.6s0.4-0.9,0.7-1.2c0.3-0.3,0.7-0.6,1.2-0.8c0.4-0.2,0.9-0.3,1.4-0.3c0.4,0,0.9,0.1,1.4,0.3
			c0.4,0.2,0.8,0.4,1.2,0.8c0.3,0.3,0.5,0.8,0.7,1.2S176,25.1,176,25.6z M175.2,25.6c0-0.4-0.1-0.8-0.2-1.2c-0.1-0.3-0.3-0.7-0.5-1
			c-0.2-0.3-0.5-0.6-0.9-0.7c-0.4-0.1-0.7-0.2-1.2-0.2c-0.4,0-0.8,0.1-1.2,0.2c-0.3,0.1-0.6,0.4-0.9,0.7c-0.2,0.3-0.4,0.7-0.5,1
			c-0.1,0.3-0.2,0.8-0.2,1.2c0,0.4,0.1,0.8,0.2,1.2c0.1,0.3,0.3,0.7,0.5,1c0.2,0.3,0.5,0.6,0.9,0.7c0.4,0.1,0.7,0.2,1.2,0.2
			c0.4,0,0.8-0.1,1.2-0.2c0.3-0.1,0.6-0.4,0.9-0.7c0.2-0.3,0.4-0.7,0.5-1C175.1,26.4,175.2,26.1,175.2,25.6z"/>
		<path class="st3" d="M178.1,29.2h-0.7V22h2c0.3,0,0.6,0,0.9,0.1c0.3,0.1,0.5,0.2,0.7,0.3s0.4,0.3,0.5,0.6c0.1,0.2,0.2,0.6,0.2,0.9
			c0,0.2,0,0.6-0.1,0.8c-0.1,0.2-0.2,0.4-0.4,0.6c-0.2,0.1-0.3,0.3-0.5,0.3c-0.2,0.1-0.4,0.1-0.7,0.2l2,3.4h-0.8l-1.9-3.3h-1.2
			L178.1,29.2L178.1,29.2z M178.1,25.2h1.3c0.5,0,0.9-0.1,1.3-0.3c0.3-0.2,0.4-0.6,0.4-1c0-0.2,0-0.4-0.1-0.6
			c-0.1-0.1-0.2-0.3-0.3-0.4c-0.1-0.1-0.3-0.2-0.5-0.2s-0.4-0.1-0.7-0.1h-1.3L178.1,25.2L178.1,25.2z"/>
		<path class="st3" d="M186.6,28L186.6,28l2.3-6h1.1v7.2h-0.7v-6.3l0,0l-2.5,6.3h-0.3l-2.5-6.3l0,0v6.3h-0.6V22h1.1L186.6,28z"/>
	</g>
	<g>
		<path class="st4" d="M8.3,12.7l-0.7-1.8H4.2l-0.7,1.8H1.7l3.5-8h1.6l3.4,8H8.3z M8.6,5C8.1,5,7.7,4.6,7.7,4.1V2.5L10.2,5H8.6z
			 M7.7,2.5H1.9c-0.5,0-0.8,0.3-0.8,0.8v9c0,0.5,0.4,0.8,0.8,0.8h7.5c0.5,0,0.8-0.4,0.8-0.8V5.1L7.7,2.5z M66.3,5.4
			c-0.5,0-0.9-0.4-0.9-0.9V3l2.5,2.5L66.3,5.4L66.3,5.4z M65.4,3h-5.8c-0.5,0-0.8,0.3-0.8,0.8v9c0,0.5,0.4,0.8,0.8,0.8h7.5
			c0.5,0,0.8-0.4,0.8-0.8V5.5L65.4,3z M136,5.1c-0.6,0-1.1-0.4-1.1-1V2.3l2.9,2.7H136L136,5.1L136,5.1z M134.9,2.3H128
			c-0.6,0-1,0.3-1,0.9v9.6c0,0.6,0.4,0.9,1,0.9h8.8c0.6,0,1-0.4,1-0.9V5.1L134.9,2.3z"/>
		<polygon class="st4" points="5,9.5 7.1,9.5 6,6.8 		"/>
	</g>
	<g class="st1">
		<path class="st5" d="M124.2-0.1h-7.7c-0.7,0-1.1,0.5-1.1,1.1v11.9c0,0.7,0.5,1.1,1.1,1.1h9.9c0.7,0,1.1-0.5,1.1-1.1V3.3L124.2-0.1
			z M124.3,12.6l-0.8-2.1h-4l-0.8,2.1h-2.1l4.1-9.4h1.9l4,9.4H124.3z M125.1,3.5c-0.6,0-1-0.4-1-1V0.7l2.9,2.9h-1.9
			C125.1,3.6,125.1,3.5,125.1,3.5z"/>
		<polygon class="st5" points="120.3,8.8 122.8,8.8 121.6,5.7 		"/>
	</g>
</g>
<g>
	<g>
		<path class="st0" d="M11.6,12.6V5.2h2l1.5,2.7c0.4,0.8,0.9,1.7,1.2,2.5l0,0c-0.1-1-0.1-2-0.1-3.1V5.2h1.5v7.4h-1.8l-1.6-2.9
			c-0.4-0.8-0.9-1.8-1.3-2.6l0,0c0.1,1,0.1,2,0.1,3.2v2.2h-1.5V12.6z"/>
		<path class="st0" d="M20.9,10.7l-0.5,1.9h-1.7L21,5.2h2.2l2.3,7.4h-1.8l-0.6-1.9H20.9z M22.8,9.5l-0.5-1.6c-0.1-0.4-0.3-1-0.4-1.4
			l0,0c-0.1,0.4-0.2,1-0.3,1.4l-0.4,1.6C21.2,9.5,22.8,9.5,22.8,9.5z"/>
		<path class="st0" d="M26.4,5.2h1.7v6h3v1.4h-4.6V5.2H26.4z"/>
		<path class="st0" d="M33.8,12.6v-3l-2.3-4.4h1.8L34.1,7c0.2,0.5,0.4,0.9,0.6,1.4l0,0C34.9,7.9,35,7.5,35.3,7L36,5.2h1.9l-2.4,4.3
			v3.1H33.8z"/>
		<path class="st0" d="M38.7,10.9c0.4,0.2,1.1,0.5,1.9,0.5c0.8,0,1.2-0.3,1.2-0.8s-0.4-0.7-1.2-1c-1.2-0.4-2-1.1-2-2.2
			c0-1.3,1.1-2.2,2.8-2.2c0.8,0,1.5,0.2,1.9,0.4l-0.4,1.3c-0.3-0.1-0.8-0.4-1.5-0.4s-1.1,0.3-1.1,0.7c0,0.5,0.4,0.7,1.4,1
			c1.3,0.5,1.9,1.2,1.9,2.2c0,1.2-0.9,2.3-3,2.3c-0.8,0-1.7-0.2-2.1-0.5L38.7,10.9z"/>
		<path class="st0" d="M46.3,5.2v7.4h-1.7V5.2H46.3z"/>
		<path class="st0" d="M47.8,10.9c0.4,0.2,1.1,0.5,1.9,0.5c0.8,0,1.2-0.3,1.2-0.8s-0.4-0.7-1.2-1c-1.2-0.4-2-1.1-2-2.2
			c0-1.3,1.1-2.2,2.8-2.2c0.8,0,1.5,0.2,1.9,0.4L52,6.9c-0.3-0.1-0.8-0.4-1.5-0.4s-1.1,0.3-1.1,0.7c0,0.5,0.4,0.7,1.4,1
			c1.3,0.5,1.9,1.2,1.9,2.2c0,1.2-0.9,2.3-3,2.3c-0.8,0-1.7-0.2-2.1-0.5L47.8,10.9z"/>
		<path class="st0" d="M53,13.9c0.3-1,0.6-2.1,0.8-3.1l1.7-0.1c-0.4,1.1-0.9,2.3-1.4,3.1L53,13.9z"/>
	</g>
</g>
<g>
	<g>
		<path class="st3" d="M61.2,5.3c0.5-0.1,1.2-0.2,2.3-0.2c1,0,1.8,0.2,2.3,0.6c0.5,0.4,0.8,1,0.8,1.7s-0.2,1.3-0.7,1.8
			c-0.6,0.5-1.4,0.8-2.4,0.8c-0.2,0-0.4,0-0.6,0v2.7h-1.7V5.3z M62.9,8.7c0.1,0,0.3,0,0.6,0c0.9,0,1.4-0.5,1.4-1.2s-0.5-1.1-1.3-1.1
			c-0.3,0-0.6,0-0.7,0.1V8.7z"/>
	</g>
</g>
<g>
	<g>
		<path class="st0" d="M69.6,5.7h1.7v6h3v1.4h-4.6L69.6,5.7L69.6,5.7z"/>
		<path class="st0" d="M76.9,11.3l-0.5,1.9h-1.7L77,5.8h2.2l2.3,7.4h-1.8l-0.6-1.9H76.9z M78.8,10l-0.5-1.6C78.2,8,78,7.4,77.9,7
			l0,0c-0.1,0.4-0.2,1-0.3,1.4L77.2,10C77.2,10,78.8,10,78.8,10z"/>
		<path class="st0" d="M82.4,13.2V5.7h2l1.5,2.7c0.4,0.8,0.9,1.7,1.2,2.5l0,0c-0.1-1-0.1-2-0.1-3.1V5.7h1.5v7.4h-1.8l-1.5-2.8
			c-0.4-0.8-0.9-1.8-1.3-2.6l0,0c0.1,1,0.1,2,0.1,3.2v2.2h-1.6V13.2z"/>
		<path class="st0" d="M90,13.2V5.7h2l1.5,2.7c0.4,0.8,0.9,1.7,1.2,2.5l0,0c-0.1-1-0.1-2-0.1-3.1V5.7h1.5v7.4h-1.8l-1.5-2.8
			c-0.4-0.8-0.9-1.8-1.3-2.6l0,0c0.1,1,0.1,2,0.1,3.2v2.2H90V13.2z"/>
		<path class="st0" d="M99.3,5.7v7.4h-1.7V5.7H99.3z"/>
		<path class="st0" d="M100.7,13.2V5.7h2l1.5,2.7c0.4,0.8,0.9,1.7,1.2,2.5l0,0c-0.1-1-0.1-2-0.1-3.1V5.7h1.5v7.4H105l-1.6-2.9
			c-0.4-0.8-0.9-1.8-1.3-2.6l0,0c0.1,1,0.1,2,0.1,3.2V13h-1.5C100.7,13,100.7,13.2,100.7,13.2z"/>
		<path class="st0" d="M114.5,12.8c-0.5,0.2-1.5,0.4-2.5,0.4c-1.4,0-2.3-0.3-3-1c-0.7-0.6-1.1-1.6-1-2.7c0-2.5,1.8-3.9,4.2-3.9
			c1,0,1.7,0.2,2.1,0.4l-0.4,1.3C113.5,7.1,113,7,112.2,7c-1.4,0-2.5,0.8-2.5,2.4c0,1.5,1,2.4,2.3,2.4c0.4,0,0.7,0,0.8-0.1v-1.6
			h-1.1V8.8h2.8C114.5,8.8,114.5,12.8,114.5,12.8z"/>
		<path class="st0" d="M122.8,13.2c-0.2-0.2-0.3-0.3-0.5-0.5c-0.5,0.4-1.2,0.7-2,0.7c-1.8,0-2.6-1.1-2.6-2.1s0.6-1.7,1.4-2.1l0,0
			c-0.3-0.4-0.6-0.9-0.6-1.4c0-0.9,0.7-2,2.2-2c1.1,0,2,0.7,2,1.7c0,0.8-0.4,1.4-1.5,1.9l0,0c0.4,0.5,0.9,1,1.2,1.4
			c0.3-0.5,0.5-1.1,0.6-1.8h1.5c-0.2,1.1-0.6,2.1-1.2,2.8c0.4,0.5,0.9,1,1.3,1.5h-1.8V13.2z M121.5,11.7c-0.5-0.5-1.1-1.1-1.7-1.8
			c-0.3,0.2-0.6,0.5-0.6,1c0,0.6,0.5,1.2,1.2,1.2C120.9,12.1,121.3,11.9,121.5,11.7z M120,7.4c0,0.4,0.2,0.7,0.5,1.1
			c0.5-0.4,0.8-0.7,0.8-1.1c0-0.3-0.2-0.7-0.6-0.7C120.2,6.7,120,7,120,7.4z"/>
	</g>
</g>
<g>
	<g>
		<path class="st0" d="M146,9.4c0,2.4-1.5,3.9-3.6,3.9c-2.2,0-3.5-1.7-3.5-3.8c0-2.2,1.4-3.9,3.6-3.9C144.8,5.6,146,7.3,146,9.4z
			 M140.7,9.5c0,1.5,0.7,2.5,1.8,2.5s1.8-1.1,1.8-2.5c0-1.3-0.6-2.5-1.8-2.5C141.3,7,140.7,8,140.7,9.5z"/>
		<path class="st0" d="M147.1,13.2V5.8h2l1.5,2.7c0.4,0.8,0.9,1.7,1.2,2.5l0,0c-0.1-1-0.1-2-0.1-3.1V5.7h1.5v7.4h-1.8l-1.6-2.9
			c-0.4-0.8-0.9-1.8-1.3-2.6l0,0c0.1,1,0.1,2,0.1,3.2V13h-1.5L147.1,13.2L147.1,13.2z"/>
		<path class="st0" d="M156.4,5.7v7.4h-1.7V5.7H156.4z"/>
		<path class="st0" d="M159.3,7.1h-2V5.7h5.7v1.4h-2v6h-1.7V7.1z"/>
		<path class="st0" d="M170.7,9.4c0,2.4-1.5,3.9-3.6,3.9c-2.2,0-3.5-1.7-3.5-3.8c0-2.2,1.4-3.9,3.6-3.9
			C169.4,5.6,170.7,7.3,170.7,9.4z M165.3,9.5c0,1.5,0.7,2.5,1.8,2.5s1.8-1.1,1.8-2.5c0-1.3-0.6-2.5-1.8-2.5
			C166,7,165.3,8,165.3,9.5z"/>
		<path class="st0" d="M171.8,5.8c0.5-0.1,1.3-0.2,2.2-0.2c1.1,0,1.9,0.2,2.4,0.6c0.4,0.4,0.7,0.9,0.7,1.6c0,0.9-0.7,1.6-1.3,1.8
			l0,0c0.5,0.2,0.8,0.7,1,1.4c0.2,0.8,0.5,1.8,0.6,2.1h-1.7c-0.1-0.2-0.3-0.8-0.5-1.7c-0.2-0.9-0.5-1.2-1.2-1.2h-0.5v2.9h-1.7V5.8z
			 M173.4,9h0.7c0.8,0,1.3-0.4,1.3-1.1s-0.5-1-1.2-1c-0.4,0-0.6,0-0.8,0.1V9z"/>
		<path class="st0" d="M180,5.7v7.4h-1.7V5.7H180z"/>
		<path class="st0" d="M181.4,13.2V5.8h2l1.5,2.7c0.4,0.8,0.9,1.7,1.2,2.5l0,0c-0.1-1-0.1-2-0.1-3.1V5.7h1.5v7.4h-1.8l-1.6-2.9
			c-0.4-0.8-0.9-1.8-1.3-2.6l0,0c0.1,1,0.1,2,0.1,3.2V13h-1.5L181.4,13.2L181.4,13.2z"/>
		<path class="st0" d="M195.2,12.8c-0.5,0.2-1.5,0.4-2.5,0.4c-1.4,0-2.3-0.3-3-1c-0.7-0.6-1.1-1.6-1-2.7c0-2.5,1.8-3.9,4.2-3.9
			c1,0,1.7,0.2,2.1,0.4l-0.4,1.3c-0.4-0.2-0.9-0.3-1.7-0.3c-1.4,0-2.5,0.8-2.5,2.4c0,1.5,1,2.4,2.3,2.4c0.4,0,0.7,0,0.8-0.1v-1.6
			h-1.1V8.8h2.8L195.2,12.8L195.2,12.8z"/>
	</g>
</g>
<g>
	<g>
		<path class="st3" d="M134.4,9.7c0-0.9-0.1-2-0.1-3.1l0,0c-0.2,0.9-0.5,2-0.8,2.9l-0.9,2.9h-1.3l-0.8-2.9c-0.2-0.9-0.5-1.9-0.7-2.9
			l0,0c0,1-0.1,2.2-0.1,3.1l-0.1,2.8H128l0.5-7.4h2.2l0.7,2.5c0.2,0.9,0.5,1.8,0.6,2.7l0,0c0.2-0.9,0.5-1.8,0.7-2.7l0.8-2.5h2.2
			l0.4,7.4h-1.6L134.4,9.7z"/>
	</g>
</g>
</svg>
