<?xml version="1.0" encoding="utf-8"?>
<!-- Generator: Adobe Illustrator 25.2.1, SVG Export Plug-In . SVG Version: 6.00 Build 0)  -->
<svg version="1.1" id="Layer_1" xmlns="http://www.w3.org/2000/svg" xmlns:xlink="http://www.w3.org/1999/xlink" x="0px" y="0px"
	 viewBox="0 0 40 40" style="enable-background:new 0 0 40 40;" xml:space="preserve">
<style type="text/css">
	.st0{fill:#0AC7D9;}
	.st1{fill:#FFFFFF;}
</style>
<desc>Created with Sketch.</desc>
<g id="Artboard">
	<g id="Layer_1_1_">
		<g id="Group">
			<polygon id="Shape" class="st0" points="17.7,24.2 24.6,24.2 21.1,15.9 			"/>
			<path id="Shape_1_" class="st0" d="M28,1.6H8.6c-1.7,0-2.9,1.1-2.9,2.9v29.7c0,1.7,1.1,2.9,2.9,2.9h24.9c1.7,0,2.9-1.1,2.9-2.9
				v-24L28,1.6z M28.6,3.3l6.3,6.3h-4c-1.1,0-2.3-0.9-2.3-2.3V3.3z"/>
		</g>
	</g>
</g>
<g>
	<g>
		<path class="st1" d="M9.2,22.9l-0.4,2.7H5.8l2.5-12.8h4.1L15,25.7H12l-0.4-2.7H9.2z M11.1,20.4c-0.3-1.9-0.6-4-0.7-5.1h-0.1
			c-0.1,1.2-0.4,3.3-0.7,5.1H11.1z"/>
		<path class="st1" d="M16.1,12.8h4.2c2.2,0,3.8,1.2,3.8,3.9c0,2.7-1.4,3.9-4,3.9H19v5h-2.9V12.8z M19,18.4h0.8c1,0,1.4-0.5,1.4-1.7
			c0-1.2-0.5-1.6-1.3-1.6H19V18.4z"/>
		<path class="st1" d="M33.3,21.5c0-2,0-4.6,0.1-6.2h-0.1c-0.4,2.7-0.9,7-1.5,10.3h-2.4c-0.4-3.4-1-7.7-1.3-10.3H28
			c0.1,1.5,0.1,4.1,0.1,6.3v4h-2.6V12.8h4.1c0.4,2.7,0.8,5.9,1,7.7h0.1c0.2-1.9,0.7-4.7,1.2-7.7h4.1v12.8h-2.8V21.5z"/>
	</g>
</g>
</svg>
